<svg width="48" height="48" viewBox="0 0 48 48" fill="none" xmlns="http://www.w3.org/2000/svg">
<path d="M24 12L24 40" stroke="#0D0D0D" stroke-width="1.5" stroke-linecap="round"/>
<path d="M11.9611 6.57087C18.6435 7.84319 22.6262 10.5046 24 12.0326C25.3738 10.5046 29.3565 7.84319 36.0389 6.57087C39.4242 5.92631 41.1169 5.60402 42.5584 6.83929C44 8.07455 44 10.0804 44 14.0922V28.5099C44 32.1781 44 34.0122 43.0748 35.1573C42.1496 36.3024 40.1127 36.6903 36.0389 37.4659C32.4073 38.1574 29.5731 39.2591 27.5216 40.3661C25.5032 41.4554 24.494 42 24 42C23.506 42 22.4968 41.4554 20.4784 40.3661C18.4269 39.2591 15.5927 38.1574 11.9611 37.4659C7.8873 36.6903 5.85039 36.3024 4.9252 35.1573C4 34.0122 4 32.1781 4 28.5099V14.0922C4 10.0804 4 8.07455 5.44157 6.83929C6.88313 5.60402 8.5758 5.92631 11.9611 6.57087Z" stroke="#0D0D0D" stroke-width="1.5" stroke-linecap="round" stroke-linejoin="round"/>
</svg>
