<svg width="48" height="48" viewBox="0 0 48 48" fill="none" xmlns="http://www.w3.org/2000/svg">
<path d="M36 4V8M12 4V8" stroke="#0D0D0D" stroke-width="1.5" stroke-linecap="round" stroke-linejoin="round"/>
<path d="M23.991 26H24.009M23.991 34H24.009M31.9821 26H32M16 26H16.0179M16 34H16.0179" stroke="#0D0D0D" stroke-width="2" stroke-linecap="round" stroke-linejoin="round"/>
<path d="M7 16H41" stroke="#0D0D0D" stroke-width="1.5" stroke-linecap="round" stroke-linejoin="round"/>
<path d="M5 24.4865C5 15.7719 5 11.4146 7.50424 8.70728C10.0085 6 14.039 6 22.1 6H25.9C33.961 6 37.9915 6 40.4958 8.70728C43 11.4146 43 15.7719 43 24.4865V25.5135C43 34.2281 43 38.5854 40.4958 41.2927C37.9915 44 33.961 44 25.9 44H22.1C14.039 44 10.0085 44 7.50424 41.2927C5 38.5854 5 34.2281 5 25.5135V24.4865Z" stroke="#0D0D0D" stroke-width="1.5" stroke-linecap="round" stroke-linejoin="round"/>
<path d="M6 16H42" stroke="#0D0D0D" stroke-width="1.5" stroke-linecap="round" stroke-linejoin="round"/>
</svg>
