<svg width="48" height="48" viewBox="0 0 48 48" fill="none" xmlns="http://www.w3.org/2000/svg">
<path d="M7.55525 23.8847C5.6592 20.5786 4.7437 17.879 4.19167 15.1424C3.37524 11.0952 5.24362 7.14161 8.33876 4.61895C9.6469 3.55277 11.1465 3.91704 11.92 5.3048L13.6664 8.43782C15.0506 10.9211 15.7427 12.1628 15.6054 13.4792C15.4681 14.7956 14.5347 15.8677 12.6679 18.012L7.55525 23.8847ZM7.55525 23.8847C11.393 30.5765 17.4157 36.6025 24.1153 40.4448M24.1153 40.4448C27.4214 42.3408 30.121 43.2563 32.8576 43.8083C36.9048 44.6248 40.8584 42.7564 43.3811 39.6612C44.4472 38.3531 44.083 36.8535 42.6952 36.08L39.5622 34.3336C37.0789 32.9494 35.8372 32.2573 34.5208 32.3946C33.2044 32.5319 32.1323 33.4653 29.988 35.3321L24.1153 40.4448Z" stroke="#0D0D0D" stroke-width="1.5" stroke-linejoin="round"/>
</svg>
