<svg width="48" height="48" viewBox="0 0 48 48" fill="none" xmlns="http://www.w3.org/2000/svg">
<path d="M18.2686 5C12.9361 5.1215 9.8214 5.62912 7.69328 7.74985C5.83073 9.60594 5.20812 12.2151 5 16.4M29.7314 5C35.0639 5.1215 38.1786 5.62912 40.3067 7.74985C42.1693 9.60594 42.7919 12.2151 43 16.4M29.7314 43C35.0639 42.8785 38.1786 42.3709 40.3067 40.2501C42.1693 38.3941 42.7919 35.7849 43 31.6M18.2686 43C12.9361 42.8785 9.8214 42.3709 7.69328 40.2501C5.83073 38.3941 5.20812 35.7849 5 31.6" stroke="#0D0D0D" stroke-width="1.5" stroke-linecap="round" stroke-linejoin="round"/>
<path d="M32 24C32 28.4183 28.4183 32 24 32C19.5817 32 16 28.4183 16 24C16 19.5817 19.5817 16 24 16C28.4183 16 32 19.5817 32 24Z" stroke="#0D0D0D" stroke-width="1.5" stroke-linecap="round" stroke-linejoin="round"/>
</svg>
