<svg width="48" height="48" viewBox="0 0 48 48" fill="none" xmlns="http://www.w3.org/2000/svg">
<path d="M18.8031 38.5242L18.6138 39.2499L18.8031 38.5242ZM16.0833 35.227L15.3686 35.4544V35.4544L16.0833 35.227ZM16.7443 36.9696L16.1029 37.3583L16.7443 36.9696ZM31.9134 35.227L32.6281 35.4544V35.4544L31.9134 35.227ZM31.2523 36.9696L31.8937 37.3583L31.2523 36.9696ZM29.1936 38.5242L29.3828 39.2499L29.1936 38.5242ZM31.4871 33.3342L31.7692 32.6393L31.4871 33.3342ZM32.1405 34.284L32.8897 34.2497L32.1405 34.284ZM16.5096 33.3342L16.2275 32.6393L16.5096 33.3342ZM15.8562 34.284L15.107 34.2497L15.8562 34.284ZM29.8777 38.7713C29.9556 38.3645 29.689 37.9715 29.2822 37.8935C28.8754 37.8156 28.4824 38.0822 28.4045 38.489L29.1411 38.6301L29.8777 38.7713ZM28.9194 39.7872L28.1828 39.6461V39.6461L28.9194 39.7872ZM19.0771 39.7872L19.8137 39.6461V39.6461L19.0771 39.7872ZM19.592 38.489C19.514 38.0822 19.1211 37.8156 18.7142 37.8935C18.3074 37.9715 18.0408 38.3645 18.1188 38.7713L18.8554 38.6301L19.592 38.489ZM21.6212 43.8186L21.3771 44.5278V44.5278L21.6212 43.8186ZM19.7123 42.1851L19.0533 42.5431V42.5431L19.7123 42.1851ZM28.2842 42.1851L28.9432 42.5431V42.5431L28.2842 42.1851ZM26.3753 43.8186L26.6193 44.5278V44.5278L26.3753 43.8186ZM17.4353 33.2617V34.0117H30.5613V33.2617V32.5117H17.4353V33.2617ZM27.4066 38.6301V37.8801H20.5901V38.6301V39.3801H27.4066V38.6301ZM20.5901 38.6301V37.8801C19.6271 37.8801 19.2831 37.8743 18.9923 37.7984L18.8031 38.5242L18.6138 39.2499C19.1358 39.386 19.7122 39.3801 20.5901 39.3801V38.6301ZM16.0833 35.227L15.3686 35.4544C15.6475 36.331 15.8209 36.893 16.1029 37.3583L16.7443 36.9696L17.3857 36.5809C17.2187 36.3053 17.1011 35.9525 16.7979 34.9996L16.0833 35.227ZM18.8031 38.5242L18.9923 37.7984C18.3363 37.6273 17.7584 37.1957 17.3857 36.5809L16.7443 36.9696L16.1029 37.3583C16.6708 38.2953 17.5672 38.9769 18.6138 39.2499L18.8031 38.5242ZM31.9134 35.227L31.1987 34.9996C30.8955 35.9525 30.7779 36.3053 30.6109 36.5809L31.2523 36.9696L31.8937 37.3583C32.1757 36.893 32.3492 36.331 32.6281 35.4544L31.9134 35.227ZM27.4066 38.6301V39.3801C28.2844 39.3801 28.8609 39.386 29.3828 39.2499L29.1936 38.5242L29.0043 37.7984C28.7135 37.8743 28.3695 37.8801 27.4066 37.8801V38.6301ZM31.2523 36.9696L30.6109 36.5809C30.2383 37.1957 29.6604 37.6273 29.0043 37.7984L29.1936 38.5242L29.3828 39.2499C30.4294 38.9769 31.3259 38.2953 31.8937 37.3583L31.2523 36.9696ZM30.5613 33.2617V34.0117C30.8199 34.0117 30.9794 34.0121 31.0978 34.0194C31.2144 34.0266 31.2268 34.038 31.205 34.0292L31.4871 33.3342L31.7692 32.6393C31.5687 32.5579 31.3672 32.5331 31.1902 32.5222C31.0148 32.5114 30.8008 32.5117 30.5613 32.5117V33.2617ZM31.9134 35.227L32.6281 35.4544C32.7042 35.2152 32.7711 35.0059 32.8158 34.8317C32.8609 34.6561 32.8993 34.4599 32.8897 34.2497L32.1405 34.284L31.3913 34.3183C31.3908 34.3086 31.3944 34.3364 31.363 34.4585C31.3313 34.5819 31.2801 34.7438 31.1987 34.9996L31.9134 35.227ZM31.4871 33.3342L31.205 34.0292C31.2975 34.0667 31.3845 34.1713 31.3913 34.3183L32.1405 34.284L32.8897 34.2497C32.8576 33.5485 32.4324 32.9085 31.7692 32.6393L31.4871 33.3342ZM17.4353 33.2617V32.5117C17.1958 32.5117 16.9818 32.5114 16.8065 32.5222C16.6294 32.5331 16.428 32.5579 16.2275 32.6393L16.5096 33.3342L16.7917 34.0292C16.7699 34.038 16.7822 34.0266 16.8989 34.0194C17.0172 34.0121 17.1768 34.0117 17.4353 34.0117V33.2617ZM16.0833 35.227L16.7979 34.9996C16.7166 34.7438 16.6653 34.5819 16.6336 34.4585C16.6023 34.3364 16.6058 34.3086 16.6054 34.3183L15.8562 34.284L15.107 34.2497C15.0974 34.4599 15.1357 34.6561 15.1808 34.8317C15.2256 35.0059 15.2925 35.2152 15.3686 35.4544L16.0833 35.227ZM16.5096 33.3342L16.2275 32.6393C15.5643 32.9085 15.1391 33.5485 15.107 34.2497L15.8562 34.284L16.6054 34.3183C16.6121 34.1713 16.6991 34.0667 16.7917 34.0292L16.5096 33.3342ZM29.1411 38.6301L28.4045 38.489L28.1828 39.6461L28.9194 39.7872L29.656 39.9284L29.8777 38.7713L29.1411 38.6301ZM19.0771 39.7872L19.8137 39.6461L19.592 38.489L18.8554 38.6301L18.1188 38.7713L18.3405 39.9284L19.0771 39.7872ZM23.9982 43.9986V43.2486C22.7044 43.2486 22.2405 43.2386 21.8652 43.1094L21.6212 43.8186L21.3771 44.5278C22.0477 44.7586 22.8199 44.7486 23.9982 44.7486V43.9986ZM19.0771 39.7872L18.3405 39.9284C18.5726 41.1401 18.7123 41.9154 19.0533 42.5431L19.7123 42.1851L20.3713 41.827C20.1691 41.4548 20.0663 40.9648 19.8137 39.6461L19.0771 39.7872ZM21.6212 43.8186L21.8652 43.1094C21.2397 42.8941 20.7046 42.4405 20.3713 41.827L19.7123 42.1851L19.0533 42.5431C19.5599 43.4757 20.3857 44.1866 21.3771 44.5278L21.6212 43.8186ZM28.9194 39.7872L28.1828 39.6461C27.9301 40.9648 27.8274 41.4548 27.6251 41.827L28.2842 42.1851L28.9432 42.5431C29.2842 41.9154 29.4238 41.1401 29.656 39.9284L28.9194 39.7872ZM23.9982 43.9986V44.7486C25.1766 44.7486 25.9487 44.7586 26.6193 44.5278L26.3753 43.8186L26.1312 43.1094C25.756 43.2386 25.2921 43.2486 23.9982 43.2486V43.9986ZM28.2842 42.1851L27.6251 41.827C27.2919 42.4405 26.7568 42.8941 26.1312 43.1094L26.3753 43.8186L26.6193 44.5278C27.6108 44.1866 28.4366 43.4757 28.9432 42.5431L28.2842 42.1851Z" fill="#0D0D0D"/>
<path d="M12.1788 30C11.4219 28.2988 11 26.4061 11 24.4118C11 17.0047 16.8203 11 24 11C31.1797 11 37 17.0047 37 24.4118C37 26.4061 36.5781 28.2988 35.8212 30" stroke="#0D0D0D" stroke-width="1.5" stroke-linecap="round"/>
<path d="M24 4V6" stroke="#0D0D0D" stroke-width="1.5" stroke-linecap="round" stroke-linejoin="round"/>
<path d="M44 24L42 24" stroke="#0D0D0D" stroke-width="1.5" stroke-linecap="round" stroke-linejoin="round"/>
<path d="M6 24L4 24" stroke="#0D0D0D" stroke-width="1.5" stroke-linecap="round" stroke-linejoin="round"/>
<path d="M38.1406 9.85791L36.7264 11.2721" stroke="#0D0D0D" stroke-width="1.5" stroke-linecap="round" stroke-linejoin="round"/>
<path d="M11.2734 11.2729L9.85922 9.85874" stroke="#0D0D0D" stroke-width="1.5" stroke-linecap="round" stroke-linejoin="round"/>
</svg>
