<svg width="48" height="48" viewBox="0 0 48 48" fill="none" xmlns="http://www.w3.org/2000/svg">
<path d="M4 12L17.826 19.8339C22.9232 22.722 25.0768 22.722 30.174 19.8339L44 12" stroke="#0D0D0D" stroke-width="1.5" stroke-linejoin="round"/>
<path d="M4.03153 26.9512C4.16228 33.0823 4.22766 36.1478 6.48991 38.4187C8.75217 40.6896 11.9007 40.7687 18.1977 40.9269C22.0786 41.0244 25.9214 41.0244 29.8024 40.9269C36.0993 40.7687 39.2478 40.6896 41.5101 38.4187C43.7724 36.1478 43.8377 33.0823 43.9685 26.9512C44.0105 24.9799 44.0105 23.0202 43.9685 21.0488C43.8377 14.9177 43.7724 11.8522 41.5101 9.58132C39.2478 7.31046 36.0994 7.23135 29.8024 7.07314C25.9214 6.97563 22.0786 6.97562 18.1976 7.07312C11.9007 7.23133 8.75217 7.31043 6.48991 9.58129C4.22765 11.8522 4.16227 14.9177 4.03153 21.0488C3.98949 23.0201 3.98949 24.9799 4.03153 26.9512Z" stroke="#0D0D0D" stroke-width="1.5" stroke-linejoin="round"/>
</svg>
