<svg width="48" height="48" viewBox="0 0 48 48" fill="none" xmlns="http://www.w3.org/2000/svg">
<path d="M24 4C35.0474 4 44 12.9556 44 24C44 35.0444 35.0474 44 24 44" stroke="#0D0D0D" stroke-width="1.5" stroke-linecap="round" stroke-linejoin="round"/>
<path d="M18 43C15.6233 42.1905 13.3906 41.0213 11.446 39.4923M11.446 8.50769C13.3906 7.00118 15.6233 5.80947 18 5M4 20.4922C4.43213 18.1763 5.32037 15.9277 6.59276 13.8816M4 27.5078C4.43213 29.8237 5.32037 32.0723 6.59276 34.1184" stroke="#0D0D0D" stroke-width="1.5" stroke-linecap="round" stroke-linejoin="round"/>
<path d="M16 33C20.1452 28.6041 27.8102 28.3971 32 33M28.4357 19.5C28.4357 21.9853 26.443 24 23.9849 24C21.5268 24 19.5342 21.9853 19.5342 19.5C19.5342 17.0147 21.5268 15 23.9849 15C26.443 15 28.4357 17.0147 28.4357 19.5Z" stroke="#0D0D0D" stroke-width="1.5" stroke-linecap="round"/>
</svg>
